<?xml version="1.0" encoding="UTF-8" standalone="no"?>
<!-- Generator: Adobe Illustrator 15.0.2, SVG Export Plug-In  -->

<svg
   xmlns:dc="http://purl.org/dc/elements/1.1/"
   xmlns:cc="http://creativecommons.org/ns#"
   xmlns:rdf="http://www.w3.org/1999/02/22-rdf-syntax-ns#"
   xmlns:svg="http://www.w3.org/2000/svg"
   xmlns="http://www.w3.org/2000/svg"
   xmlns:sodipodi="http://sodipodi.sourceforge.net/DTD/sodipodi-0.dtd"
   xmlns:inkscape="http://www.inkscape.org/namespaces/inkscape"
   version="1.1"
   x="0px"
   y="0px"
   width="200px"
   height="200px"
   viewBox="-13.739 -56.408 200 200"
   overflow="visible"
   enable-background="new -13.739 -56.408 200 200"
   xml:space="preserve"
   id="svg24"
   sodipodi:docname="the-beatles-logo.svg"
   inkscape:export-filename="C:\Users\alex\sites\the-beatles-logo-0.png"
   inkscape:export-xdpi="1966.08"
   inkscape:export-ydpi="1966.08"
   inkscape:version="0.92.3 (2405546, 2018-03-11)"><metadata
   id="metadata28"><rdf:RDF><cc:Work
       rdf:about=""><dc:format>image/svg+xml</dc:format><dc:type
         rdf:resource="http://purl.org/dc/dcmitype/StillImage" /></cc:Work></rdf:RDF></metadata><sodipodi:namedview
   pagecolor="#ffffff"
   bordercolor="#666666"
   borderopacity="1"
   objecttolerance="10"
   gridtolerance="10"
   guidetolerance="10"
   inkscape:pageopacity="0"
   inkscape:pageshadow="2"
   inkscape:window-width="1600"
   inkscape:window-height="838"
   id="namedview26"
   showgrid="false"
   inkscape:zoom="1.668772"
   inkscape:cx="33.675504"
   inkscape:cy="100.23165"
   inkscape:window-x="-8"
   inkscape:window-y="-8"
   inkscape:window-maximized="1"
   inkscape:current-layer="svg24" />
<defs
   id="defs2">
</defs>
<path
   d="m 38.855365,34.913683 c 0.02542,-1.743387 -0.45185,-3.962158 -1.566413,-4.950579 2.526594,0 19.262922,0.0113 19.236564,0.0113 l -1.002541,7.445163 c -1.001601,-1.078792 -2.196179,-2.511532 -3.696697,-2.511532 -1.540996,0.0056 -4.745364,0 -4.762308,0 v 12.161349 c 0.01694,0.02353 2.460699,0.02353 3.759767,0 1.30754,0.02353 2.611315,-0.274875 3.884025,-1.566412 v 8.270734 C 53.651563,52.892599 52.34873,52.089624 51.074137,52.089624 l -4.010167,-0.0085 v 15.476797 c 0.994069,0.311588 7.248424,-0.04048 9.523676,-3.384168 L 55.271633,72.5085 H 37.163752 c 1.542879,-1.297185 1.717029,-3.35216 1.691613,-4.887508 z"
   id="path4"
   inkscape:connector-curvature="0"
   style="stroke-width:0.94135374"
   inkscape:export-filename="C:\Users\alex\sites\the-beatles-logo-4.png"
   inkscape:export-xdpi="235.24438"
   inkscape:export-ydpi="235.24438" />
<path
   d="m 124.38488,34.913683 c -0.0311,-1.743387 -0.50927,-3.962158 -1.56641,-4.950579 2.46917,0 19.20738,0.0113 19.2375,0.0113 l -1.06655,7.445167 c -0.99501,-1.078792 -2.18959,-2.511532 -3.6967,-2.511532 -1.5344,0.0056 -4.73877,0 -4.76231,0 v 12.161349 c 0.0226,0.02353 2.46635,0.02353 3.75883,0 1.31413,0.02353 2.6179,-0.274875 3.9471,-1.566412 v 8.270734 c -1.11268,-0.881107 -2.41551,-1.684082 -3.69764,-1.684082 l -4.00923,-0.0085 v 15.476797 c 1.00066,0.311588 7.25502,-0.04048 9.52462,-3.384167 l -1.31601,8.334746 H 122.6302 c 1.54852,-1.297184 1.72267,-3.352159 1.75374,-4.887507 V 34.913683 Z"
   id="path6"
   inkscape:connector-curvature="0"
   style="stroke-width:0.94135374"
   inkscape:export-filename="C:\Users\alex\sites\the-beatles-logo-4.png"
   inkscape:export-xdpi="235.24438"
   inkscape:export-ydpi="235.24438" />
<path
   d="m 93.494362,3.8970183 c 0.01318,-0.6740093 -0.21557,-1.5344066 -0.753083,-1.9420128 1.210581,0.024475 9.187611,0.024475 9.211141,0 l -0.5008,2.9445546 c -0.49044,-0.4527912 -1.05902,-0.995011 -1.754678,-0.995011 -0.754025,-0.00753 -2.281842,0 -2.255484,0 v 4.6917072 c -0.02542,0.015062 1.139979,0.015062 1.753742,0 0.627883,0.015062 1.24918,-0.052716 1.87988,-0.5648122 v 3.6345669 c -0.52716,-0.363363 -1.149389,-0.772852 -1.753739,-0.753083 h -1.879883 v 5.76485 c 0.440553,0.127083 3.421822,-0.01224 4.511912,-1.315071 l -0.626,3.258025 h -8.649162 c 0.746493,-0.5008 0.829333,-1.348019 0.816154,-1.942013 z"
   id="path8"
   inkscape:connector-curvature="0"
   style="stroke-width:0.94135374"
   inkscape:export-filename="C:\Users\alex\sites\the-beatles-logo-4.png"
   inkscape:export-xdpi="235.24438"
   inkscape:export-ydpi="235.24438" />
<path
   d="m 105.08619,34.913683 c 0.0264,-1.743387 -0.45091,-3.962158 -1.56735,-4.950579 h 11.34142 c -1.07973,0.988421 -1.50334,3.207192 -1.50334,4.950579 V 67.43369 c 0.97618,0.343594 7.22583,-0.016 9.52368,-3.384167 l -1.56642,8.459005 h -17.92054 c 1.0722,-0.651416 1.7189,-2.824061 1.69255,-5.075779 z"
   id="path10"
   inkscape:connector-curvature="0"
   style="stroke-width:0.94135374"
   inkscape:export-filename="C:\Users\alex\sites\the-beatles-logo-4.png"
   inkscape:export-xdpi="235.24438"
   inkscape:export-ydpi="235.24438" />
<path
   d="m 102.07668,29.963104 1.37909,8.522075 c -0.78227,-1.493928 -3.41994,-3.577144 -4.824441,-3.577144 l -2.380684,0.0056 c -0.57046,0 -0.802033,1.011014 -0.802033,2.005084 -0.01318,1.720794 0.34736,39.608401 0.487621,41.981553 0.09225,2.407043 1.364963,5.33936 2.319496,6.328722 H 83.530132 c 0.954533,-0.989362 2.228184,-3.921679 2.319496,-6.328722 0.140261,-2.373152 0.488562,-40.260759 0.488562,-41.981552 0.01224,-0.994071 -0.231573,-2.010732 -0.802033,-2.010732 l -2.381625,0.0056 c -1.405441,0 -4.028994,1.969312 -4.824438,3.571496 l 1.378142,-8.522076 h 22.368444 z"
   id="path12"
   inkscape:connector-curvature="0"
   style="stroke-width:0.94135374"
   inkscape:export-filename="C:\Users\alex\sites\the-beatles-logo-4.png"
   inkscape:export-xdpi="235.24438"
   inkscape:export-ydpi="235.24438" />
<path
   d="m 71.877114,4.7122307 c 0,-0.3784242 -0.110139,-0.7775582 -0.376542,-0.753083 h -1.315071 c -0.66083,-0.024475 -1.579592,0.7493176 -1.942954,1.3790832 l 0.314412,-3.3832254 h 10.650476 l 0.314413,3.3832254 C 79.165075,4.7517675 78.239724,3.9346725 77.578893,3.9591477 H 76.19981 C 75.912697,3.9346727 75.8035,4.3328651 75.825151,4.7122307 V 16.679661 c -0.02353,0.839687 0.22216,1.569236 0.68813,1.942012 h -5.325238 c 0.345477,-0.294643 0.683423,-1.002541 0.683423,-1.942011 z"
   id="path14"
   inkscape:connector-curvature="0"
   style="stroke-width:0.94135374"
   inkscape:export-filename="C:\Users\alex\sites\the-beatles-logo-4.png"
   inkscape:export-xdpi="235.24438"
   inkscape:export-ydpi="235.24438" />
<path
   d="m 86.163098,18.621673 h 5.57658 C 91.235113,18.373156 90.925407,17.553237 90.925407,16.679661 L 90.924466,3.8970183 c 0,-0.6740093 0.216511,-1.5344066 0.753083,-1.9420128 h -5.389251 c 0.49327,0.4085475 0.70884,1.2689449 0.68813,1.9420128 v 4.699238 h -2.255484 v -4.699238 c -0.02824,-0.6730679 0.18733,-1.5334653 0.690013,-1.9420128 h -5.389251 c 0.5281,0.4085475 0.742729,1.2689449 0.742729,1.9420128 l 0.0094,12.7817007 c 0,0.874519 -0.319119,1.694437 -0.815212,1.942013 h 5.51445 c -0.470677,-0.248517 -0.780382,-1.068436 -0.7512,-1.942013 v -5.763908 h 2.255483 v 5.76485 c 0.01977,0.873576 -0.289937,1.693495 -0.814271,1.942012 z"
   id="path16"
   inkscape:connector-curvature="0"
   style="stroke-width:0.94135374"
   inkscape:export-filename="C:\Users\alex\sites\the-beatles-logo-4.png"
   inkscape:export-xdpi="235.24438"
   inkscape:export-ydpi="235.24438" />
<path
   d="m 23.065097,3.4583475 c 7.351031,-0.028241 12.52377,3.6006781 12.52377,16.1658675 0.0085,7.322791 -2.22536,13.131886 -6.75892,15.539868 4.326462,2.311965 8.486305,7.774641 8.458064,16.981081 0.0273,15.810978 -6.54994,20.369954 -14.912926,20.369954 l -17.73134,-0.0066 c 2.0709783,-2.281841 2.8767771,-4.236092 2.8767771,-7.079921 l 0.00565,-55.203809 C 7.5261702,7.4195641 6.7147233,5.6582912 4.643745,3.3962181 Z M 16.924646,30.338704 c 0,1.547585 1.362139,1.981549 3.634567,2.005083 5.140733,-0.02259 5.744141,-5.561518 5.764851,-12.845713 -0.02165,-9.406007 -2.429634,-11.4798089 -5.890051,-11.4656886 -2.05121,-0.01412 -3.507484,1.1211523 -3.507484,2.3806836 -0.0019,1.433682 0,18.431706 0,19.925635 z m 4.762309,36.655374 c 5.184035,0 5.821332,-5.249929 5.821332,-14.912925 0.0056,-8.645393 -2.381625,-13.13471 -6.385203,-13.158243 -1.717029,0.02259 -4.195614,0.349241 -4.195614,1.628542 -0.0019,1.327309 0,21.420505 0,23.05846 -0.0019,1.837523 1.908124,3.391698 4.760426,3.391698 v -0.0075 z"
   id="path18"
   inkscape:connector-curvature="0"
   style="stroke-width:0.94135374"
   inkscape:export-filename="C:\Users\alex\sites\the-beatles-logo-4.png"
   inkscape:export-xdpi="235.24438"
   inkscape:export-ydpi="235.24438" />
<path
   d="m 64.35758,29.963104 c 1.5297,1.983432 1.747152,3.22696 1.315071,4.950579 L 58.404459,67.62102 c -0.321002,1.427093 -1.075968,3.699521 -2.380684,4.887508 h 9.900217 C 64.420651,71.367609 64.040344,69.576211 64.419709,67.62102 l 1.127742,-4.886567 h 7.958205 l 1.127742,4.699237 c 0.301233,1.212464 0.0085,4.212558 -1.315072,5.07578 h 11.27836 C 83.592261,71.646248 82.287545,69.577153 81.714261,67.558891 L 74.69741,34.976754 c -0.430199,-1.728325 -0.207098,-3.029277 1.315071,-5.012709 H 64.35758 Z m 8.207663,28.071169 h -5.951238 l 3.069754,-13.347455 z"
   id="path20"
   inkscape:connector-curvature="0"
   style="stroke-width:0.94135374"
   inkscape:export-filename="C:\Users\alex\sites\the-beatles-logo-4.png"
   inkscape:export-xdpi="235.24438"
   inkscape:export-ydpi="235.24438" />
<path
   d="m 165.93435,30.817853 -3.38322,7.269134 c -1.10327,-2.873953 -3.61574,-4.099596 -7.2456,-3.890616 -2.40234,0.138379 -5.33936,2.227244 -5.30641,5.686719 0.0857,3.059399 1.65866,4.508143 9.2921,8.479714 7.00273,3.667515 8.58703,7.818885 8.58703,12.0851 0,7.429164 -4.99294,12.890898 -13.91227,12.916315 -6.84552,-0.02448 -10.84534,-3.771063 -10.84534,-8.333805 0.006,-3.587499 2.03898,-6.330604 5.45703,-7.142992 -1.23694,1.428975 -1.41956,3.193072 -1.44121,4.010167 0.0217,2.271486 1.29342,6.138569 6.82952,6.138569 3.17425,0 5.70272,-2.097338 5.70272,-6.013368 -0.0235,-5.190625 -3.96404,-6.805048 -7.5826,-8.647276 -2.37221,-1.195519 -9.01346,-4.729361 -9.01346,-12.907843 -0.008,-6.216701 5.72248,-11.054317 11.77162,-11.090088 5.60388,-0.03295 4.17773,2.502118 11.09009,1.44027 z"
   id="path22"
   inkscape:connector-curvature="0"
   style="stroke-width:0.94135374"
   inkscape:export-filename="C:\Users\alex\sites\the-beatles-logo-4.png"
   inkscape:export-xdpi="235.24438"
   inkscape:export-ydpi="235.24438" />
</svg>