<svg id="SvgjsSvg1001" width="288" height="288" xmlns="http://www.w3.org/2000/svg" version="1.1" xmlns:xlink="http://www.w3.org/1999/xlink" xmlns:svgjs="http://svgjs.com/svgjs"><defs id="SvgjsDefs1002"></defs><g id="SvgjsG1008"><svg xmlns="http://www.w3.org/2000/svg" width="288" height="288" enable-background="new -13.739 -56.408 200 200" overflow="visible" viewBox="-13.739 -56.408 200 200"><path d="M38.855365 34.913683c.02542-1.743387-.45185-3.962158-1.566413-4.950579 2.526594 0 19.262922.0113 19.236564.0113l-1.002541 7.445163c-1.001601-1.078792-2.196179-2.511532-3.696697-2.511532-1.540996.0056-4.745364 0-4.762308 0v12.161349c.01694.02353 2.460699.02353 3.759767 0 1.30754.02353 2.611315-.274875 3.884025-1.566412v8.270734C53.651563 52.892599 52.34873 52.089624 51.074137 52.089624l-4.010167-.0085v15.476797c.994069.311588 7.248424-.04048 9.523676-3.384168L55.271633 72.5085H37.163752c1.542879-1.297185 1.717029-3.35216 1.691613-4.887508zM124.38488 34.913683c-.0311-1.743387-.50927-3.962158-1.56641-4.950579 2.46917 0 19.20738.0113 19.2375.0113l-1.06655 7.445167c-.99501-1.078792-2.18959-2.511532-3.6967-2.511532-1.5344.0056-4.73877 0-4.76231 0v12.161349c.0226.02353 2.46635.02353 3.75883 0 1.31413.02353 2.6179-.274875 3.9471-1.566412v8.270734c-1.11268-.881107-2.41551-1.684082-3.69764-1.684082l-4.00923-.0085v15.476797c1.00066.311588 7.25502-.04048 9.52462-3.384167l-1.31601 8.334746H122.6302c1.54852-1.297184 1.72267-3.352159 1.75374-4.887507V34.913683zM93.494362 3.8970183c.01318-.6740093-.21557-1.5344066-.753083-1.9420128 1.210581.024475 9.187611.024475 9.211141 0l-.5008 2.9445546c-.49044-.4527912-1.05902-.995011-1.754678-.995011-.754025-.00753-2.281842 0-2.255484 0v4.6917072c-.02542.015062 1.139979.015062 1.753742 0 .627883.015062 1.24918-.052716 1.87988-.5648122v3.6345669c-.52716-.363363-1.149389-.772852-1.753739-.753083h-1.879883v5.76485c.440553.127083 3.421822-.01224 4.511912-1.315071l-.626 3.258025h-8.649162c.746493-.5008.829333-1.348019.816154-1.942013z" fill="#ffffff" class="color000 svgShape"></path><path d="M105.08619 34.913683c.0264-1.743387-.45091-3.962158-1.56735-4.950579h11.34142c-1.07973.988421-1.50334 3.207192-1.50334 4.950579V67.43369c.97618.343594 7.22583-.016 9.52368-3.384167l-1.56642 8.459005h-17.92054c1.0722-.651416 1.7189-2.824061 1.69255-5.075779zM102.07668 29.963104l1.37909 8.522075c-.78227-1.493928-3.41994-3.577144-4.824441-3.577144l-2.380684.0056c-.57046 0-.802033 1.011014-.802033 2.005084-.01318 1.720794.34736 39.608401.487621 41.981553.09225 2.407043 1.364963 5.33936 2.319496 6.328722H83.530132c.954533-.989362 2.228184-3.921679 2.319496-6.328722.140261-2.373152.488562-40.260759.488562-41.981552.01224-.994071-.231573-2.010732-.802033-2.010732l-2.381625.0056c-1.405441 0-4.028994 1.969312-4.824438 3.571496l1.378142-8.522076h22.368444zM71.877114 4.7122307c0-.3784242-.110139-.7775582-.376542-.753083h-1.315071c-.66083-.024475-1.579592.7493176-1.942954 1.3790832l.314412-3.3832254h10.650476l.314413 3.3832254C79.165075 4.7517675 78.239724 3.9346725 77.578893 3.9591477H76.19981C75.912697 3.9346727 75.8035 4.3328651 75.825151 4.7122307V16.679661c-.02353.839687.22216 1.569236.68813 1.942012h-5.325238c.345477-.294643.683423-1.002541.683423-1.942011zM86.163098 18.621673h5.57658C91.235113 18.373156 90.925407 17.553237 90.925407 16.679661L90.924466 3.8970183c0-.6740093.216511-1.5344066.753083-1.9420128h-5.389251c.49327.4085475.70884 1.2689449.68813 1.9420128v4.699238h-2.255484v-4.699238c-.02824-.6730679.18733-1.5334653.690013-1.9420128h-5.389251c.5281.4085475.742729 1.2689449.742729 1.9420128l.0094 12.7817007c0 .874519-.319119 1.694437-.815212 1.942013h5.51445c-.470677-.248517-.780382-1.068436-.7512-1.942013v-5.763908h2.255483v5.76485c.01977.873576-.289937 1.693495-.814271 1.942012zM23.065097 3.4583475c7.351031-.028241 12.52377 3.6006781 12.52377 16.1658675.0085 7.322791-2.22536 13.131886-6.75892 15.539868 4.326462 2.311965 8.486305 7.774641 8.458064 16.981081.0273 15.810978-6.54994 20.369954-14.912926 20.369954l-17.73134-.0066c2.0709783-2.281841 2.8767771-4.236092 2.8767771-7.079921l.00565-55.203809C7.5261702 7.4195641 6.7147233 5.6582912 4.643745 3.3962181zM16.924646 30.338704c0 1.547585 1.362139 1.981549 3.634567 2.005083 5.140733-.02259 5.744141-5.561518 5.764851-12.845713-.02165-9.406007-2.429634-11.4798089-5.890051-11.4656886-2.05121-.01412-3.507484 1.1211523-3.507484 2.3806836-.0019 1.433682 0 18.431706 0 19.925635zm4.762309 36.655374c5.184035 0 5.821332-5.249929 5.821332-14.912925.0056-8.645393-2.381625-13.13471-6.385203-13.158243-1.717029.02259-4.195614.349241-4.195614 1.628542-.0019 1.327309 0 21.420505 0 23.05846-.0019 1.837523 1.908124 3.391698 4.760426 3.391698v-.0075z" fill="#ffffff" class="color000 svgShape"></path><path d="M64.35758 29.963104c1.5297 1.983432 1.747152 3.22696 1.315071 4.950579L58.404459 67.62102c-.321002 1.427093-1.075968 3.699521-2.380684 4.887508h9.900217C64.420651 71.367609 64.040344 69.576211 64.419709 67.62102l1.127742-4.886567h7.958205l1.127742 4.699237c.301233 1.212464.0085 4.212558-1.315072 5.07578h11.27836C83.592261 71.646248 82.287545 69.577153 81.714261 67.558891L74.69741 34.976754c-.430199-1.728325-.207098-3.029277 1.315071-5.012709H64.35758zm8.207663 28.071169h-5.951238l3.069754-13.347455zM165.93435 30.817853l-3.38322 7.269134c-1.10327-2.873953-3.61574-4.099596-7.2456-3.890616-2.40234.138379-5.33936 2.227244-5.30641 5.686719.0857 3.059399 1.65866 4.508143 9.2921 8.479714 7.00273 3.667515 8.58703 7.818885 8.58703 12.0851 0 7.429164-4.99294 12.890898-13.91227 12.916315-6.84552-.02448-10.84534-3.771063-10.84534-8.333805.006-3.587499 2.03898-6.330604 5.45703-7.142992-1.23694 1.428975-1.41956 3.193072-1.44121 4.010167.0217 2.271486 1.29342 6.138569 6.82952 6.138569 3.17425 0 5.70272-2.097338 5.70272-6.013368-.0235-5.190625-3.96404-6.805048-7.5826-8.647276-2.37221-1.195519-9.01346-4.729361-9.01346-12.907843-.008-6.216701 5.72248-11.054317 11.77162-11.090088 5.60388-.03295 4.17773 2.502118 11.09009 1.44027z" fill="#ffffff" class="color000 svgShape"></path></svg></g></svg>